<svg width="27" height="31" viewBox="0 0 27 31" fill="none" xmlns="http://www.w3.org/2000/svg">
<path d="M18.405 7.42662C18.405 8.43377 18.8052 9.39967 19.5173 10.1118C20.2295 10.824 21.1954 11.2241 22.2025 11.2241C23.2096 11.2241 24.1755 10.824 24.8877 10.1118C25.5998 9.39967 26 8.43377 26 7.42662C26 6.41947 25.5998 5.45357 24.8877 4.7414C24.1755 4.02924 23.2096 3.62915 22.2025 3.62915C21.1954 3.62915 20.2295 4.02924 19.5173 4.7414C18.8052 5.45357 18.405 6.41947 18.405 7.42662Z" stroke="#00A6EA" style="stroke:#00A6EA;stroke:color(display-p3 0.0000 0.6508 0.9167);stroke-opacity:1;" stroke-width="1.5" stroke-linecap="round" stroke-linejoin="round"/>
<path d="M9.86084 27.5823C10.0216 28.13 10.3555 28.6109 10.8124 28.9529C11.2693 29.2951 11.8249 29.48 12.3956 29.48C12.9664 29.48 13.522 29.2951 13.9788 28.9529C14.4358 28.6109 14.7697 28.13 14.9305 27.5823" stroke="#00A6EA" style="stroke:#00A6EA;stroke:color(display-p3 0.0000 0.6508 0.9167);stroke-opacity:1;" stroke-width="1.5" stroke-linecap="round" stroke-linejoin="round"/>
<path d="M12.3923 3.8481V1" stroke="black" style="stroke:black;stroke-opacity:1;" stroke-width="1.5" stroke-linecap="round" stroke-linejoin="round"/>
<path d="M21.9152 15.1911C22.1544 22.4772 23.7848 23.7848 23.7848 23.7848H1C1 23.7848 2.89873 21.3595 2.89873 13.3418C2.90015 11.8544 3.25067 10.3882 3.92208 9.0611C4.59348 7.73397 5.56704 6.58297 6.76439 5.70071C7.96176 4.81845 9.34949 4.22957 10.8159 3.98144C12.2824 3.73331 13.7866 3.83287 15.2076 4.27211" stroke="black" style="stroke:black;stroke-opacity:1;" stroke-width="1.5" stroke-linecap="round" stroke-linejoin="round"/>
</svg>
