<svg width="22" height="20" viewBox="0 0 22 20" fill="none" xmlns="http://www.w3.org/2000/svg">
<path d="M21.9942 9.75951C21.9942 10.4471 21.4213 10.9857 20.7719 10.9857H19.5496L19.5763 17.1049C19.5763 17.2081 19.5687 17.3112 19.5572 17.4143V18.0293C19.5572 18.8735 18.8735 19.5572 18.0293 19.5572H17.4181C17.3761 19.5572 17.3341 19.5572 17.2921 19.5534C17.2386 19.5572 17.1851 19.5572 17.1317 19.5572H15.8902H14.9735C14.1293 19.5572 13.4456 18.8735 13.4456 18.0293V17.1126V14.6679C13.4456 13.9918 12.8994 13.4456 12.2233 13.4456H9.77861C9.10251 13.4456 8.55628 13.9918 8.55628 14.6679V17.1126V18.0293C8.55628 18.8735 7.87255 19.5572 7.02838 19.5572H6.11163H4.89313C4.83583 19.5572 4.77853 19.5534 4.72124 19.5496C4.6754 19.5534 4.62956 19.5572 4.58372 19.5572H3.97256C3.12839 19.5572 2.44465 18.8735 2.44465 18.0293V13.7512C2.44465 13.7168 2.44465 13.6786 2.44847 13.6442V10.9857H1.22233C0.534768 10.9857 0 10.4509 0 9.75951C0 9.41573 0.114593 9.11015 0.381977 8.84277L10.1759 0.305582C10.4432 0.0381977 10.7488 0 11.0162 0C11.2836 0 11.5892 0.0763954 11.8184 0.267384L21.5741 8.84277C21.8796 9.11015 22.0324 9.41573 21.9942 9.75951Z" fill="#726641"/>
</svg>
