<?xml version="1.0" encoding="UTF-8"?> <svg xmlns="http://www.w3.org/2000/svg" fill="none" viewBox="0 0 75 75"><g fill="#F2C44E" clip-path="url(#a)"><path d="M23.13 51.53c-1.1-.45-1.56-.87-3.8-2.89-1.27-1.15-3.19-2.89-6.16-5.48a4.4 4.4 0 0 0-5.12-.56l-.27.16-.65-8.39a4.3 4.3 0 0 0-4.29-3.96A2.84 2.84 0 0 0 0 33.25v15.2c0 2.37 5.11 8.8 9.22 13.97 2.66 3.35 4.96 6.24 5.35 7.43v4.13a1 1 0 0 0 1.01 1.01c.56 0 1.02-.46 1.02-1.01v-4.22c0-1.25-3.62-5.87-7.12-10.34-3.81-4.87-7.41-9.47-7.45-10.98v-15.2a.8.8 0 0 1 .81-.81c1.19 0 2.16.91 2.26 2.09L6 46.14c.02.76.26 1.49.66 2.08l9.45 9.45a1.01 1.01 0 0 0 1.44-1.43L8.2 46.87a1.97 1.97 0 0 1 .92-2.55 2.4 2.4 0 0 1 2.72.36c2.7 2.33 4.52 3.99 5.85 5.2 2.48 2.25 3.23 2.93 4.69 3.53 5.62 2.3 8.04 8.1 8.04 9.63 0 2.06-.37 3.36-.7 4.51-.27.97-.51 1.8-.51 2.93v3.5a1 1 0 0 0 1.01 1.01c.56 0 1.02-.46 1.02-1.01v-3.5c0-.88.21-1.62.46-2.49.33-1.16.75-2.61.75-4.96 0-2.69-3.2-9.01-9.31-11.51l-.01.01ZM72.16 30.41a4.29 4.29 0 0 0-4.28 3.96l-.65 8.38-.27-.16a4.45 4.45 0 0 0-5.12.56 416.95 416.95 0 0 0-6.16 5.47c-2.29 2.07-2.7 2.45-3.8 2.89-6.11 2.49-9.31 8.82-9.31 11.51 0 2.35.42 3.81.75 4.98.24.86.46 1.6.46 2.46v3.5a1.02 1.02 0 0 0 2.04 0v-3.5c0-1.12-.24-1.96-.51-2.92-.33-1.15-.7-2.46-.7-4.52 0-1.53 2.42-7.33 8.04-9.63 1.43-.59 2.02-1.12 4.51-3.38 1.35-1.23 3.2-2.91 6.03-5.35a2.37 2.37 0 0 1 3.52.37c.35.54.39 1.19.07 1.88l-9.31 9.31a1 1 0 0 0 .03 1.43c.19.18.44.29.71.29a1 1 0 0 0 .7-.28l9.43-9.43c.39-.54.62-1.18.66-1.85l.91-11.87a2.28 2.28 0 0 1 2.15-2.09c.56 0 .92.32.92.81v15.21c-.04 1.44-4.18 6.84-8.42 12.24-4.84 6.17-6.15 8-6.15 9.07v4.22a1.02 1.02 0 0 0 2.04 0v-4.2c.33-.95 2.89-4.25 5.72-7.84 5.51-7.02 8.85-11.43 8.85-13.5v-15.2a2.84 2.84 0 0 0-2.84-2.84l-.02.02ZM37.5 10.55a5.02 5.02 0 0 0 4.66-5.28A5 5 0 0 0 37.51.01a5.02 5.02 0 0 0-4.68 5.28 5.01 5.01 0 0 0 4.66 5.26h.01Zm-.03-8.51h.06a2.97 2.97 0 0 1 2.61 3.22 3 3 0 0 1-2.66 3.26 2.97 2.97 0 0 1-2.61-3.22 3 3 0 0 1 2.61-3.26h-.01ZM44.59 47.23c0-.84-.19-4.79-.55-11.44l-.02-.39.33.21c.5.31 1.22.5 1.93.5.75 0 3.18-.25 3.18-3.46 0-4.67-2.36-13.58-3.08-15.24-1.12-2.59-4.27-4.01-8.88-4.01-4.61 0-7.75 1.43-8.88 4.01-.72 1.67-3.08 10.57-3.08 15.24 0 3.21 2.41 3.46 3.15 3.46a3.8 3.8 0 0 0 1.95-.5l.33-.21-.02.39a490.3 490.3 0 0 0-.55 11.44c0 3.2 2.01 3.45 2.63 3.45 3.11 0 3.49-2.01 4.02-4.8l.24-1.52h.4l.25 1.53c.54 2.78.92 4.79 4.03 4.79.62 0 2.63-.25 2.63-3.45h-.01Zm-2.3-24.6a1.01 1.01 0 0 0-.94 1.09c.01.2 1.22 21.45 1.22 23.5 0 .94-.2 1.42-.6 1.42-1.34 0-1.47-.21-2.03-3.16l-1.41-9.24a.93.93 0 0 0-.4-.63.97.97 0 0 0-.63-.24h-.05c-.49.01-.9.38-.98.86l-1.33 8.81-.08.44c-.56 2.95-.69 3.16-2.03 3.16-.4 0-.6-.48-.6-1.42 0-2.08 1.2-23.33 1.22-23.51.04-.56-.38-1.05-1.02-1.09-.53 0-.97.41-1.01.94a80.05 80.05 0 0 1-1.18 8.68c-.38 1.37-1.14 1.86-1.72 1.86-.32 0-.61-.14-.82-.41a1.7 1.7 0 0 1-.32-1.06c0-4.36 2.32-13.09 2.91-14.44.76-1.78 3.32-2.8 7.01-2.8s6.25 1.02 7.01 2.8c.59 1.36 2.92 10.1 2.92 14.44 0 1.11-.58 1.5-1.07 1.5-.61 0-1.44-.59-1.81-1.91a78.85 78.85 0 0 1-1.17-8.67c-.04-.53-.48-.94-1.08-.94l-.01.02ZM53.31 9.33a4.54 4.54 0 0 0 4.36-4.68A4.35 4.35 0 0 0 53.59 0h-.29a4.38 4.38 0 0 0-4.36 4.67 4.53 4.53 0 0 0 4.36 4.66h.01Zm-2.33-4.65a2.5 2.5 0 0 1 2.31-2.64h.02a2.5 2.5 0 0 1 2.31 2.61 2.35 2.35 0 0 1-2.01 2.64l-.32.02a2.34 2.34 0 0 1-2.32-2.62l.01-.01ZM21.69 9.33a4.54 4.54 0 0 0 4.36-4.67A4.55 4.55 0 0 0 21.69 0a4.54 4.54 0 0 0-4.37 4.67 4.53 4.53 0 0 0 4.36 4.66h.01Zm-.01-7.3h.02a2.5 2.5 0 0 1 2.31 2.62 2.52 2.52 0 0 1-2.34 2.65 2.5 2.5 0 0 1-2.31-2.62 2.5 2.5 0 0 1 2.31-2.64l.01-.01Z"></path><path d="M47.17 14.81c.28 0 .56-.12.75-.33.86-.95 2.82-1.5 5.39-1.5 3.29 0 5.42.86 5.85 2.36 2.66 9.29 2.86 11.36 2.86 11.77 0 .88-.37 1.2-.72 1.2-.55 0-1.08-.73-1.42-1.95-.43-1.53-1-4.87-1.24-6.31a1 1 0 0 0-1-.84c-.06 0-.12 0-.17.02a1 1 0 0 0-.84 1.05c.4 6.27 1.08 17.27 1.08 18.71 0 .3-.03 1-.42 1.15-1.11 0-1.21-.15-1.69-2.72l-1.26-7.15c-.1-.48-.53-.83-1.02-.83-.07 0-.14 0-.21.02-.41.08-.73.4-.81.8l-1.19 6.77-.07.39c-.49 2.56-.58 2.72-1.73 2.73h-.12l-.06-.1a1.35 1.35 0 0 1-.19-.66 1.01 1.01 0 0 0-1.01-.91h-.1a1 1 0 0 0-.9 1.11c.24 2.39 1.91 2.58 2.42 2.58 2.85 0 3.22-1.92 3.69-4.36l.08-.46h.4l.09.46c.46 2.44.83 4.36 3.69 4.36 1.18 0 2.45-.83 2.45-3.18 0-.74-.16-3.8-.48-9.08l-.02-.41.34.23c.53.36 1.14.55 1.78.55h.17c1.17 0 2.54-.83 2.54-3.17 0-1.36-1-5.53-2.97-12.41-.7-2.42-3.47-3.75-7.79-3.75-2.26 0-5.29.38-6.9 2.17a1.01 1.01 0 0 0 .77 1.68l-.02.01ZM13.49 30.28h.16c.64 0 1.26-.19 1.78-.55l.34-.23-.02.41c-.24 4.11-.48 8.19-.48 9.08 0 2.34 1.26 3.18 2.45 3.18 2.85 0 3.21-1.87 3.75-4.7l.02-.12h.39l.03.14c.54 2.82.89 4.69 3.75 4.69.51 0 2.18-.19 2.42-2.58a1.01 1.01 0 0 0-.91-1.11h-.1c-.52 0-.96.39-1.01.91-.05.5-.18.75-.39.75h-.07c-1.06 0-1.16-.2-1.64-2.72l-1.26-7.14c-.1-.48-.53-.83-1.02-.83-.07 0-.14 0-.21.02-.41.08-.72.4-.81.8l-1.19 6.77-.19.9c-.42 1.99-.46 2.2-1.62 2.21h-.13l-.06-.11c-.17-.33-.23-.7-.2-1.05a927 927 0 0 1 1.08-18.71c.01-.27-.08-.53-.26-.73-.18-.2-.43-.32-.76-.34-.49 0-.92.35-1.01.92a82.3 82.3 0 0 1-1.23 6.23c-.34 1.23-.87 1.96-1.42 1.96-.23 0-.42-.13-.55-.37-.11-.21-.17-.5-.17-.84 0-.41.21-2.49 2.89-11.85.41-1.43 2.58-2.28 5.83-2.28 2.57 0 4.54.55 5.4 1.51a1.01 1.01 0 0 0 1.43.12c.21-.17.33-.42.36-.69.02-.27-.06-.53-.28-.79-1.61-1.8-4.64-2.18-6.9-2.18-4.32 0-7.1 1.36-7.8 3.83-1.95 6.83-2.94 10.98-2.94 12.33 0 2.34 1.37 3.17 2.55 3.17v-.01Z"></path></g><defs><clipPath id="a"><path fill="#fff" d="M0 0h75v75H0z"></path></clipPath></defs></svg> 