<svg width="136" height="93" viewBox="0 0 136 93" fill="none" xmlns="http://www.w3.org/2000/svg">
<path d="M5.99609 26.1926C4.61063 26.1926 3.48636 26.0265 2.62329 25.6944C1.77157 25.3623 1.14698 24.8321 0.749511 24.1036C0.352043 23.3751 0.136275 22.4217 0.102206 21.2433C0.0681373 19.9363 0.0397467 18.6026 0.0170342 17.2421C0.00567808 15.8816 0 14.5157 0 13.1445C0 11.7626 0.00567808 10.3913 0.0170342 9.03081C0.0397467 7.6703 0.0681373 6.34728 0.102206 5.06175C0.136275 3.85122 0.352043 2.87636 0.749511 2.13719C1.15833 1.3873 1.78293 0.846305 2.62329 0.514211C3.47501 0.171404 4.59359 0 5.97905 0C8.00046 0 9.45406 0.380302 10.3398 1.1409C11.2256 1.89079 11.7139 3.14954 11.8048 4.91713C11.8389 5.65631 11.8559 6.39013 11.8559 7.11859C11.8559 7.84706 11.8389 8.58624 11.8048 9.33613H8.50014C8.5342 8.47911 8.55124 7.69172 8.55124 6.97397C8.55124 6.25622 8.5342 5.47419 8.50014 4.62789C8.46607 3.86729 8.27301 3.34236 7.92097 3.05312C7.56892 2.75317 6.92162 2.60319 5.97905 2.60319C5.01377 2.60319 4.34943 2.75317 3.98604 3.05312C3.63399 3.34236 3.44094 3.86729 3.40687 4.62789C3.35009 6.11696 3.31034 7.55782 3.28763 8.95047C3.26491 10.3431 3.25356 11.7197 3.25356 13.0802C3.25356 14.4407 3.26491 15.8173 3.28763 17.21C3.31034 18.6026 3.35009 20.0488 3.40687 21.5486C3.44094 22.3092 3.63399 22.8395 3.98604 23.1394C4.34943 23.4287 5.01945 23.5733 5.99609 23.5733C7.00679 23.5733 7.69952 23.4287 8.07428 23.1394C8.44903 22.8395 8.65912 22.3092 8.70455 21.5486C8.7159 21.088 8.72158 20.6327 8.72158 20.1827C8.73294 19.7328 8.73294 19.2829 8.72158 18.8329C8.72158 18.383 8.7159 17.9277 8.70455 17.4671H6.2005V14.6871H11.9411C11.9751 15.9298 11.9865 17.0868 11.9751 18.158C11.9638 19.2293 11.9411 20.2577 11.907 21.2433C11.8389 23.0216 11.3505 24.2911 10.442 25.0517C9.54491 25.8123 8.06292 26.1926 5.99609 26.1926Z" fill="black" style="fill:black;fill-opacity:1;"/>
<path d="M20.9142 26.2086C18.9268 26.2086 17.5073 25.8498 16.6556 25.132C15.8039 24.4035 15.3326 23.2359 15.2417 21.629C15.219 20.9219 15.1963 20.1131 15.1736 19.2025C15.1622 18.2812 15.1566 17.3332 15.1566 16.3583C15.1566 15.3727 15.1622 14.4193 15.1736 13.498C15.1963 12.566 15.219 11.7465 15.2417 11.0394C15.3439 9.36826 15.8323 8.17915 16.7067 7.47211C17.5925 6.76507 18.9779 6.41156 20.8631 6.41156C22.7709 6.41156 24.145 6.77043 24.9854 7.48818C25.8257 8.19522 26.2857 9.33612 26.3652 10.9109C26.3765 11.1573 26.3822 11.6126 26.3822 12.2768C26.3936 12.941 26.3936 13.6908 26.3822 14.5264C26.3822 15.3513 26.3652 16.1387 26.3311 16.8886H18.5123C18.5123 17.7135 18.518 18.5491 18.5294 19.3954C18.5521 20.2309 18.5748 21.088 18.5975 21.9664C18.6202 22.652 18.8076 23.1341 19.1596 23.4126C19.5117 23.6804 20.0795 23.8143 20.8631 23.8143C21.6467 23.8143 22.1974 23.6804 22.5154 23.4126C22.8447 23.1341 23.0264 22.6467 23.0605 21.9503C23.0832 21.629 23.0946 21.2112 23.0946 20.697C23.0946 20.1827 23.0775 19.6257 23.0435 19.0258H26.3311C26.3538 19.3257 26.3708 19.7489 26.3822 20.2952C26.3936 20.8416 26.3879 21.2861 26.3652 21.629C26.2857 23.268 25.8314 24.441 25.0024 25.1481C24.1734 25.8551 22.8107 26.2086 20.9142 26.2086ZM18.5294 14.5907H23.0946C23.0946 14.0444 23.0946 13.498 23.0946 12.9517C23.1059 12.4053 23.1059 11.9232 23.0946 11.5054C23.0832 11.0769 23.0719 10.777 23.0605 10.6056C23.0151 9.93068 22.822 9.45932 22.4813 9.1915C22.1406 8.92369 21.6012 8.78978 20.8631 8.78978C20.0341 8.78978 19.4549 8.93975 19.1256 9.23971C18.7962 9.52895 18.6202 9.98424 18.5975 10.6056C18.5861 11.2591 18.5691 11.9232 18.5464 12.5981C18.535 13.2623 18.5294 13.9265 18.5294 14.5907Z" fill="black" style="fill:black;fill-opacity:1;"/>
<path d="M29.8293 25.9515V6.66866H33.151V8.5166H33.8494C34.2582 7.82028 34.7351 7.29535 35.2802 6.94183C35.8253 6.58832 36.5578 6.41156 37.4777 6.41156C38.8064 6.41156 39.8 6.75972 40.4587 7.45604C41.1287 8.14166 41.4637 9.26114 41.4637 10.8145V25.9515H38.159V10.5574C38.1477 9.91461 37.983 9.45397 37.6651 9.17543C37.3471 8.88619 36.8531 8.74157 36.1831 8.74157C35.5585 8.74157 34.9509 8.8969 34.3604 9.20757C33.7812 9.51824 33.3781 9.94675 33.151 10.4931V25.9515H29.8293Z" fill="black" style="fill:black;fill-opacity:1;"/>
<path d="M51.4557 26.2086C49.4002 26.2086 47.9466 25.8605 47.0949 25.1641C46.2545 24.4571 45.8287 23.2626 45.8173 21.5807L45.8003 9.06295H44.0798V6.66866H45.8854V1.20518H49.2412V6.66866H52.8525V9.06295H49.139L49.1731 21.9503C49.1731 22.6895 49.3321 23.1877 49.65 23.4448C49.968 23.7019 50.5813 23.8304 51.4897 23.8304C51.8304 23.8304 52.1257 23.8251 52.3755 23.8143C52.6367 23.7929 52.932 23.7769 53.2613 23.7661V26.0479C52.9888 26.0908 52.7049 26.1283 52.4096 26.1604C52.1143 26.1926 51.7964 26.2086 51.4557 26.2086Z" fill="black" style="fill:black;fill-opacity:1;"/>
<path d="M55.7627 25.9515V0.241038H59.0674V25.9515H55.7627Z" fill="black" style="fill:black;fill-opacity:1;"/>
<path d="M67.9569 26.2086C65.9696 26.2086 64.55 25.8498 63.6983 25.132C62.8466 24.4035 62.3753 23.2359 62.2845 21.629C62.2617 20.9219 62.239 20.1131 62.2163 19.2025C62.205 18.2812 62.1993 17.3332 62.1993 16.3583C62.1993 15.3727 62.205 14.4193 62.2163 13.498C62.239 12.566 62.2617 11.7465 62.2845 11.0394C62.3867 9.36826 62.875 8.17915 63.7494 7.47211C64.6352 6.76507 66.0207 6.41156 67.9058 6.41156C69.8136 6.41156 71.1877 6.77043 72.0281 7.48818C72.8685 8.19522 73.3284 9.33612 73.4079 10.9109C73.4192 11.1573 73.4249 11.6126 73.4249 12.2768C73.4363 12.941 73.4363 13.6908 73.4249 14.5264C73.4249 15.3513 73.4079 16.1387 73.3738 16.8886H65.5551C65.5551 17.7135 65.5607 18.5491 65.5721 19.3954C65.5948 20.2309 65.6175 21.088 65.6402 21.9664C65.6629 22.652 65.8503 23.1341 66.2024 23.4126C66.5544 23.6804 67.1222 23.8143 67.9058 23.8143C68.6894 23.8143 69.2402 23.6804 69.5581 23.4126C69.8875 23.1341 70.0692 22.6467 70.1032 21.9503C70.1259 21.629 70.1373 21.2112 70.1373 20.697C70.1373 20.1827 70.1203 19.6257 70.0862 19.0258H73.3738C73.3965 19.3257 73.4136 19.7489 73.4249 20.2952C73.4363 20.8416 73.4306 21.2861 73.4079 21.629C73.3284 23.268 72.8741 24.441 72.0451 25.1481C71.2161 25.8551 69.8534 26.2086 67.9569 26.2086ZM65.5721 14.5907H70.1373C70.1373 14.0444 70.1373 13.498 70.1373 12.9517C70.1487 12.4053 70.1487 11.9232 70.1373 11.5054C70.1259 11.0769 70.1146 10.777 70.1032 10.6056C70.0578 9.93068 69.8647 9.45932 69.5241 9.1915C69.1834 8.92369 68.644 8.78978 67.9058 8.78978C67.0768 8.78978 66.4976 8.93975 66.1683 9.23971C65.839 9.52895 65.6629 9.98424 65.6402 10.6056C65.6289 11.2591 65.6118 11.9232 65.5891 12.5981C65.5778 13.2623 65.5721 13.9265 65.5721 14.5907Z" fill="black" style="fill:black;fill-opacity:1;"/>
<path d="M83 25.7105V0H89.6945L91.4661 10.3324L92.3859 22.8502H93.4761L94.3619 10.3324L96.1675 0H102.828V25.7105H99.4381V17.7081L99.9492 2.77995H98.4672L96.7808 18.2866L95.2307 25.6302H90.5292L89.0642 18.2866L87.3778 2.77995H85.8958L86.3898 17.7081V25.7105H83Z" fill="black" style="fill:black;fill-opacity:1;"/>
<path d="M113.704 25.9676C111.717 25.9676 110.297 25.6087 109.446 24.891C108.594 24.1625 108.123 22.9948 108.032 21.3879C108.009 20.6809 107.986 19.8721 107.964 18.9615C107.952 18.0402 107.947 17.0921 107.947 16.1173C107.947 15.1317 107.952 14.1783 107.964 13.257C107.986 12.325 108.009 11.5054 108.032 10.7984C108.134 9.12722 108.622 7.93811 109.497 7.23108C110.382 6.52404 111.768 6.17052 113.653 6.17052C115.561 6.17052 116.935 6.52939 117.775 7.24715C118.616 7.95418 119.076 9.09509 119.155 10.6699C119.166 10.9162 119.172 11.3715 119.172 12.0357C119.184 12.6999 119.184 13.4498 119.172 14.2854C119.172 15.1103 119.155 15.8977 119.121 16.6475H111.302C111.302 17.4724 111.308 18.308 111.319 19.1543C111.342 19.9899 111.365 20.8469 111.387 21.7254C111.41 22.411 111.598 22.8931 111.95 23.1716C112.302 23.4394 112.869 23.5733 113.653 23.5733C114.437 23.5733 114.987 23.4394 115.305 23.1716C115.635 22.8931 115.816 22.4056 115.85 21.7093C115.873 21.3879 115.885 20.9701 115.885 20.4559C115.885 19.9417 115.867 19.3846 115.833 18.7847H119.121C119.144 19.0847 119.161 19.5078 119.172 20.0542C119.184 20.6005 119.178 21.0451 119.155 21.3879C119.076 23.027 118.621 24.2 117.792 24.907C116.963 25.6141 115.601 25.9676 113.704 25.9676ZM111.319 14.3497H115.885C115.885 13.8033 115.885 13.257 115.885 12.7106C115.896 12.1643 115.896 11.6822 115.885 11.2644C115.873 10.8359 115.862 10.5359 115.85 10.3645C115.805 9.68964 115.612 9.21828 115.271 8.95047C114.931 8.68265 114.391 8.54874 113.653 8.54874C112.824 8.54874 112.245 8.69872 111.916 8.99867C111.586 9.28792 111.41 9.74321 111.387 10.3645C111.376 11.018 111.359 11.6822 111.336 12.3571C111.325 13.0213 111.319 13.6855 111.319 14.3497Z" fill="black" style="fill:black;fill-opacity:1;"/>
<path d="M123.982 25.7105V6.42762H127.304V8.27557H128.002C128.411 7.57924 128.888 7.05432 129.433 6.7008C129.978 6.34728 130.711 6.17052 131.63 6.17052C132.959 6.17052 133.953 6.51868 134.611 7.21501C135.281 7.90062 135.616 9.0201 135.616 10.5734V25.7105H132.312V10.3163C132.3 9.67357 132.136 9.21293 131.818 8.9344C131.5 8.64515 131.006 8.50053 130.336 8.50053C129.711 8.50053 129.104 8.65587 128.513 8.96653C127.934 9.2772 127.531 9.70571 127.304 10.2521V25.7105H123.982Z" fill="black" style="fill:black;fill-opacity:1;"/>
<path d="M35.8264 38.3734L34.8172 42.8861C30.5001 41.9889 26.8277 41.5403 23.8001 41.5403C12.9233 41.5403 7.48485 44.6543 7.48485 50.8823C7.48485 53.2574 8.26978 55.0784 9.83964 56.3451C11.4656 57.6118 13.4839 58.6674 15.8948 59.5119C18.3617 60.3036 20.9968 61.0425 23.8001 61.7287C26.6035 62.362 29.2105 63.2329 31.6214 64.3413C37.2841 66.9803 40.1154 71.018 40.1154 76.4543C40.1154 81.8907 37.9569 86.0075 33.6398 88.8049C29.9394 91.2328 25.0616 92.4467 19.0065 92.4467C11.4936 92.4467 5.1581 90.8369 0 87.6173L2.18659 83.5796C3.70038 84.5825 5.85893 85.5325 8.66224 86.4298C11.4656 87.2743 14.1848 87.6965 16.8199 87.6965C21.978 87.6965 26.0428 86.9048 29.0143 85.3214C32.6026 83.3685 34.3967 80.5712 34.3967 76.9293C34.3967 74.2376 33.5837 72.1527 31.9578 70.6749C30.3879 69.1443 28.3696 67.9303 25.9026 67.0331C23.4918 66.083 20.8847 65.2913 18.0814 64.658C15.2781 63.9718 12.671 63.1273 10.2601 62.1245C4.59744 59.8022 1.76609 56.3451 1.76609 51.7532C1.76609 47.1613 3.44808 43.5195 6.81206 40.8277C10.176 38.1359 14.9417 36.79 21.109 36.79C25.8746 36.79 30.7804 37.3178 35.8264 38.3734Z" fill="white" style="fill:white;fill-opacity:1;"/>
<path d="M49.3559 92.3675V36.9484H61.5503C68.4464 36.9484 73.4364 37.9776 76.52 40.036C80.1082 42.4111 81.9024 46.4752 81.9024 52.2282C81.9024 61.8342 77.9777 67.6928 70.1284 69.804C67.6055 70.4902 64.7461 70.8332 61.5503 70.8332H55.0746V92.3675H49.3559ZM55.0746 41.3027V66.4789H61.1298C66.1758 66.4789 69.9322 65.4497 72.3991 63.3912C74.9221 61.28 76.1836 57.8757 76.1836 53.1783C76.1836 48.4281 74.9221 45.2613 72.3991 43.6778C69.9322 42.0944 66.1758 41.3027 61.1298 41.3027H55.0746Z" fill="white" style="fill:white;fill-opacity:1;"/>
<path d="M124.31 77.721H98.4075L93.0252 92.3675H87.5587L108.836 36.9484H113.966L136 92.3675H129.861L124.31 77.721ZM99.8372 73.7625H122.796L111.107 42.9653L99.8372 73.7625Z" fill="white" style="fill:white;fill-opacity:1;"/>
</svg>
