<svg width="95" height="65" viewBox="0 0 95 65" fill="none" xmlns="http://www.w3.org/2000/svg">
<path d="M4.18844 18.2963C3.22066 18.2963 2.43533 18.1803 1.83244 17.9483C1.23749 17.7163 0.801198 17.3459 0.523555 16.8371C0.245912 16.3282 0.0951919 15.6622 0.0713939 14.8391C0.0475959 13.9261 0.0277643 12.9945 0.0118989 12.0441C0.00396631 11.0938 0 10.1397 0 9.18181C0 8.21649 0.00396631 7.25865 0.0118989 6.30829C0.0277643 5.35793 0.0475959 4.43376 0.0713939 3.53578C0.0951919 2.69019 0.245912 2.00922 0.523555 1.49289C0.809131 0.969067 1.24543 0.591169 1.83244 0.359191C2.42739 0.11973 3.20876 0 4.17654 0C5.58856 0 6.60394 0.265652 7.22269 0.796956C7.84143 1.32077 8.18254 2.20004 8.246 3.43476C8.2698 3.9511 8.28169 4.46369 8.28169 4.97255C8.28169 5.4814 8.2698 5.99774 8.246 6.52156H5.9376C5.96139 5.92291 5.97329 5.3729 5.97329 4.87152C5.97329 4.37015 5.96139 3.82389 5.9376 3.23272C5.9138 2.70141 5.77894 2.33474 5.53303 2.1327C5.28712 1.92317 4.83496 1.8184 4.17654 1.8184C3.50227 1.8184 3.03821 1.92317 2.78436 2.1327C2.53845 2.33474 2.4036 2.70141 2.3798 3.23272C2.34013 4.27287 2.31237 5.27936 2.2965 6.25216C2.28064 7.22497 2.27271 8.18656 2.27271 9.13692C2.27271 10.0873 2.28064 11.0489 2.2965 12.0217C2.31237 12.9945 2.34013 14.0047 2.3798 15.0523C2.4036 15.5836 2.53845 15.9541 2.78436 16.1636C3.03821 16.3656 3.50624 16.4667 4.18844 16.4667C4.89445 16.4667 5.37834 16.3656 5.64012 16.1636C5.9019 15.9541 6.04865 15.5836 6.08038 15.0523C6.08832 14.7306 6.09228 14.4125 6.09228 14.0982C6.10021 13.7839 6.10021 13.4697 6.09228 13.1554C6.09228 12.8411 6.08832 12.523 6.08038 12.2013H4.33123V10.2594H8.34119C8.36499 11.1274 8.37292 11.9356 8.36499 12.6839C8.35706 13.4322 8.34119 14.1506 8.31739 14.8391C8.2698 16.0813 7.92869 16.968 7.29408 17.4993C6.6674 18.0306 5.63219 18.2963 4.18844 18.2963Z" fill="black" style="fill:black;fill-opacity:1;"/>
<path d="M14.6092 18.3075C13.221 18.3075 12.2294 18.0568 11.6344 17.5554C11.0395 17.0466 10.7103 16.2309 10.6468 15.1085C10.6309 14.6146 10.6151 14.0496 10.5992 13.4135C10.5913 12.77 10.5873 12.1077 10.5873 11.4268C10.5873 10.7383 10.5913 10.0723 10.5992 9.42876C10.6151 8.77772 10.6309 8.20526 10.6468 7.71138C10.7182 6.54401 11.0593 5.71338 11.6701 5.21949C12.2889 4.7256 13.2566 4.47866 14.5735 4.47866C15.9062 4.47866 16.866 4.72934 17.453 5.23072C18.04 5.7246 18.3613 6.52156 18.4168 7.62158C18.4248 7.79369 18.4287 8.11172 18.4287 8.57568C18.4367 9.03963 18.4367 9.56345 18.4287 10.1471C18.4287 10.7233 18.4168 11.2734 18.393 11.7972H12.9314C12.9314 12.3734 12.9354 12.9571 12.9433 13.5482C12.9592 14.1319 12.975 14.7306 12.9909 15.3442C13.0068 15.8231 13.1377 16.1598 13.3836 16.3544C13.6295 16.5415 14.0261 16.635 14.5735 16.635C15.1208 16.635 15.5056 16.5415 15.7277 16.3544C15.9577 16.1598 16.0846 15.8194 16.1084 15.333C16.1243 15.1085 16.1322 14.8166 16.1322 14.4574C16.1322 14.0982 16.1203 13.7091 16.0965 13.2901H18.393C18.4089 13.4996 18.4208 13.7952 18.4287 14.1768C18.4367 14.5585 18.4327 14.869 18.4168 15.1085C18.3613 16.2534 18.044 17.0728 17.4649 17.5667C16.8858 18.0606 15.9339 18.3075 14.6092 18.3075ZM12.9433 10.192H16.1322C16.1322 9.8104 16.1322 9.42876 16.1322 9.04712C16.1402 8.66548 16.1402 8.32874 16.1322 8.03689C16.1243 7.73757 16.1164 7.52804 16.1084 7.40831C16.0767 6.93687 15.9419 6.60761 15.7039 6.42053C15.4659 6.23346 15.0891 6.13992 14.5735 6.13992C13.9944 6.13992 13.5898 6.24468 13.3598 6.45421C13.1297 6.65625 13.0068 6.97429 12.9909 7.40831C12.983 7.86478 12.9711 8.32874 12.9552 8.80017C12.9473 9.26413 12.9433 9.72808 12.9433 10.192Z" fill="black" style="fill:black;fill-opacity:1;"/>
<path d="M20.8366 18.1279V4.65826H23.1569V5.9491H23.6448C23.9304 5.46269 24.2635 5.09602 24.6443 4.84908C25.0251 4.60213 25.5367 4.47866 26.1793 4.47866C27.1074 4.47866 27.8015 4.72186 28.2616 5.20827C28.7296 5.68719 28.9636 6.46918 28.9636 7.55423V18.1279H26.6552V7.37464C26.6473 6.92565 26.5323 6.60387 26.3101 6.40931C26.088 6.20727 25.743 6.10624 25.2749 6.10624C24.8386 6.10624 24.4142 6.21475 24.0017 6.43176C23.5972 6.64877 23.3156 6.9481 23.1569 7.32974V18.1279H20.8366Z" fill="black" style="fill:black;fill-opacity:1;"/>
<path d="M35.9433 18.3075C34.5075 18.3075 33.4921 18.0643 32.8972 17.5779C32.3102 17.084 32.0127 16.2496 32.0047 15.0748L31.9928 6.33074H30.791V4.65826H32.0523V0.841854H34.3964V4.65826H36.919V6.33074H34.325L34.3488 15.333C34.3488 15.8493 34.4599 16.1973 34.682 16.3769C34.9041 16.5564 35.3325 16.6462 35.9671 16.6462C36.2051 16.6462 36.4113 16.6425 36.5859 16.635C36.7683 16.6201 36.9746 16.6088 37.2046 16.6013V18.1953C37.0142 18.2252 36.8159 18.2514 36.6096 18.2738C36.4034 18.2963 36.1813 18.3075 35.9433 18.3075Z" fill="black" style="fill:black;fill-opacity:1;"/>
<path d="M38.9519 18.1279V0.168372H41.2603V18.1279H38.9519Z" fill="black" style="fill:black;fill-opacity:1;"/>
<path d="M47.4699 18.3075C46.0817 18.3075 45.0901 18.0568 44.4951 17.5554C43.9002 17.0466 43.571 16.2309 43.5075 15.1085C43.4917 14.6146 43.4758 14.0496 43.4599 13.4135C43.452 12.77 43.448 12.1077 43.448 11.4268C43.448 10.7383 43.452 10.0723 43.4599 9.42876C43.4758 8.77772 43.4917 8.20526 43.5075 7.71138C43.5789 6.54401 43.92 5.71338 44.5308 5.21949C45.1496 4.7256 46.1174 4.47866 47.4342 4.47866C48.7669 4.47866 49.7267 4.72934 50.3138 5.23072C50.9008 5.7246 51.222 6.52156 51.2776 7.62158C51.2855 7.79369 51.2895 8.11172 51.2895 8.57568C51.2974 9.03963 51.2974 9.56345 51.2895 10.1471C51.2895 10.7233 51.2776 11.2734 51.2538 11.7972H45.7921C45.7921 12.3734 45.7961 12.9571 45.804 13.5482C45.8199 14.1319 45.8358 14.7306 45.8516 15.3442C45.8675 15.8231 45.9984 16.1598 46.2443 16.3544C46.4902 16.5415 46.8868 16.635 47.4342 16.635C47.9815 16.635 48.3663 16.5415 48.5884 16.3544C48.8184 16.1598 48.9454 15.8194 48.9692 15.333C48.985 15.1085 48.993 14.8166 48.993 14.4574C48.993 14.0982 48.9811 13.7091 48.9573 13.2901H51.2538C51.2696 13.4996 51.2815 13.7952 51.2895 14.1768C51.2974 14.5585 51.2934 14.869 51.2776 15.1085C51.222 16.2534 50.9047 17.0728 50.3257 17.5667C49.7466 18.0606 48.7946 18.3075 47.4699 18.3075ZM45.804 10.192H48.993C48.993 9.8104 48.993 9.42876 48.993 9.04712C49.0009 8.66548 49.0009 8.32874 48.993 8.03689C48.985 7.73757 48.9771 7.52804 48.9692 7.40831C48.9374 6.93687 48.8026 6.60761 48.5646 6.42053C48.3266 6.23346 47.9498 6.13992 47.4342 6.13992C46.8551 6.13992 46.4505 6.24468 46.2205 6.45421C45.9905 6.65625 45.8675 6.97429 45.8516 7.40831C45.8437 7.86478 45.8318 8.32874 45.8159 8.80017C45.808 9.26413 45.804 9.72808 45.804 10.192Z" fill="black" style="fill:black;fill-opacity:1;"/>
<path d="M57.978 17.9595V0H62.6543L63.8918 7.21749L64.5344 15.9615H65.2959L65.9147 7.21749L67.1759 0H71.8284V17.9595H69.4606V12.3696L69.8175 1.94187H68.7823L67.6043 12.7737L66.5215 17.9034H63.2374L62.2141 12.7737L61.0361 1.94187H60.0009L60.3459 12.3696V17.9595H57.978Z" fill="black" style="fill:black;fill-opacity:1;"/>
<path d="M79.4258 18.1391C78.0375 18.1391 77.046 17.8884 76.451 17.3871C75.8561 16.8782 75.5269 16.0626 75.4634 14.9401C75.4475 14.4462 75.4317 13.8812 75.4158 13.2452C75.4079 12.6016 75.4039 11.9394 75.4039 11.2584C75.4039 10.5699 75.4079 9.90394 75.4158 9.26039C75.4317 8.60935 75.4475 8.03689 75.4634 7.54301C75.5348 6.37563 75.8759 5.54501 76.4867 5.05112C77.1055 4.55723 78.0732 4.31029 79.3901 4.31029C80.7228 4.31029 81.6826 4.56097 82.2696 5.06234C82.8566 5.55623 83.1779 6.35319 83.2334 7.45321C83.2414 7.62532 83.2453 7.94335 83.2453 8.40731C83.2533 8.87126 83.2533 9.39508 83.2453 9.97877C83.2453 10.555 83.2334 11.105 83.2096 11.6288H77.748C77.748 12.205 77.752 12.7887 77.7599 13.3799C77.7758 13.9635 77.7916 14.5622 77.8075 15.1758C77.8234 15.6547 77.9543 15.9915 78.2002 16.186C78.4461 16.3731 78.8427 16.4667 79.3901 16.4667C79.9374 16.4667 80.3222 16.3731 80.5443 16.186C80.7743 15.9915 80.9012 15.651 80.925 15.1646C80.9409 14.9401 80.9488 14.6482 80.9488 14.2891C80.9488 13.9299 80.9369 13.5407 80.9131 13.1217H83.2096C83.2255 13.3312 83.2374 13.6268 83.2453 14.0084C83.2533 14.3901 83.2493 14.7006 83.2334 14.9401C83.1779 16.085 82.8606 16.9044 82.2815 17.3983C81.7024 17.8922 80.7505 18.1391 79.4258 18.1391ZM77.7599 10.0237H80.9488C80.9488 9.64203 80.9488 9.26039 80.9488 8.87875C80.9568 8.49711 80.9568 8.16037 80.9488 7.86852C80.9409 7.5692 80.933 7.35967 80.925 7.23994C80.8933 6.7685 80.7585 6.43924 80.5205 6.25216C80.2825 6.06508 79.9057 5.97155 79.3901 5.97155C78.811 5.97155 78.4064 6.07631 78.1764 6.28584C77.9463 6.48788 77.8234 6.80592 77.8075 7.23994C77.7996 7.69641 77.7877 8.16037 77.7718 8.6318C77.7639 9.09576 77.7599 9.55971 77.7599 10.0237Z" fill="black" style="fill:black;fill-opacity:1;"/>
<path d="M86.6051 17.9595V4.48988H88.9254V5.78073H89.4133C89.6989 5.29432 90.032 4.92765 90.4128 4.6807C90.7936 4.43376 91.3052 4.31029 91.9478 4.31029C92.8759 4.31029 93.57 4.55349 94.0301 5.0399C94.4981 5.51882 94.7321 6.30081 94.7321 7.38586V17.9595H92.4237V7.20626C92.4158 6.75728 92.3008 6.4355 92.0787 6.24094C91.8565 6.03889 91.5115 5.93787 91.0434 5.93787C90.6072 5.93787 90.1828 6.04638 89.7703 6.26339C89.3657 6.4804 89.0841 6.77973 88.9254 7.16137V17.9595H86.6051Z" fill="black" style="fill:black;fill-opacity:1;"/>
<path d="M25.0258 26.805L24.3208 29.9572C21.3052 29.3305 18.74 29.0171 16.6251 29.0171C9.0273 29.0171 5.22839 31.1923 5.22839 35.5428C5.22839 37.2019 5.77669 38.4738 6.87328 39.3587C8.00903 40.2435 9.41893 40.9809 11.103 41.5708C12.8262 42.1238 14.6669 42.64 16.6251 43.1193C18.5833 43.5617 20.4044 44.17 22.0885 44.9443C26.044 46.7877 28.0218 49.6081 28.0218 53.4056C28.0218 57.203 26.514 60.0788 23.4984 62.0328C20.9136 63.7288 17.5063 64.5767 13.2766 64.5767C8.02861 64.5767 3.60308 63.4522 0 61.2033L1.52739 58.3828C2.58482 59.0833 4.09263 59.747 6.05083 60.3737C8.00903 60.9636 9.90848 61.2586 11.7492 61.2586C15.3523 61.2586 18.1917 60.7055 20.2674 59.5995C22.7738 58.2354 24.0271 56.2813 24.0271 53.7374C24.0271 51.8571 23.4592 50.4008 22.3235 49.3685C21.2269 48.2993 19.817 47.4513 18.0938 46.8246C16.4097 46.1609 14.5886 45.6079 12.6304 45.1655C10.6722 44.6862 8.85106 44.0963 7.16701 43.3958C3.21144 41.7736 1.23366 39.3587 1.23366 36.1511C1.23366 32.9436 2.40858 30.3996 4.75842 28.5194C7.10826 26.6391 10.4372 25.6989 14.7452 25.6989C18.0742 25.6989 21.501 26.0676 25.0258 26.805Z" fill="#87CEEB" style="fill:#87CEEB;fill:color(display-p3 0.5294 0.8078 0.9216);fill-opacity:1;"/>
<path d="M34.4765 64.5214V25.8095H42.9947C47.8119 25.8095 51.2975 26.5285 53.4515 27.9663C55.958 29.6254 57.2112 32.4643 57.2112 36.4829C57.2112 43.193 54.4697 47.2854 48.9868 48.7602C47.2244 49.2394 45.227 49.4791 42.9947 49.4791H38.4713V64.5214H34.4765ZM38.4713 28.8512V46.4374H42.701C46.2257 46.4374 48.8497 45.7185 50.5729 44.2806C52.3353 42.8059 53.2165 40.4279 53.2165 37.1466C53.2165 33.8284 52.3353 31.6163 50.5729 30.5103C48.8497 29.4042 46.2257 28.8512 42.701 28.8512H38.4713Z" fill="#87CEEB" style="fill:#87CEEB;fill:color(display-p3 0.5294 0.8078 0.9216);fill-opacity:1;"/>
<path d="M86.8343 54.2904H68.7406L64.9808 64.5214H61.1623L76.0251 25.8095H79.6086L95 64.5214H90.7115L86.8343 54.2904ZM69.7392 51.5253H85.7769L77.6112 30.0125L69.7392 51.5253Z" fill="#87CEEB" style="fill:#87CEEB;fill:color(display-p3 0.5294 0.8078 0.9216);fill-opacity:1;"/>
</svg>
