<svg width="49" height="98" viewBox="0 0 49 98" fill="none" xmlns="http://www.w3.org/2000/svg">
<g clip-path="url(#clip0_122_40)">
<path fill-rule="evenodd" clip-rule="evenodd" d="M41.4978 7.55627C50.8704 16.9289 50.8704 32.1248 41.4978 41.4974C32.1253 50.8699 16.9293 50.87 7.55674 41.4974C-1.81579 32.1249 -1.81579 16.9288 7.55674 7.55627C16.9293 -1.81633 32.1253 -1.81624 41.4978 7.55627ZM40.0836 40.0832C48.6751 31.4917 48.6751 17.562 40.0836 8.97047C31.4921 0.378973 17.5624 0.378973 8.97094 8.97047C0.379441 17.562 0.379441 31.4917 8.97094 40.0832C17.5624 48.6747 31.4921 48.6747 40.0836 40.0832Z" fill="#2B3355" fill-opacity="0.3"/>
<path fill-rule="evenodd" clip-rule="evenodd" d="M30.1398 29.9627C29.7492 30.3532 29.1161 30.3532 28.7256 29.9627L19.0028 20.24C18.6123 19.8495 18.6123 19.2163 19.0028 18.8258C19.3934 18.4353 20.0265 18.4353 20.417 18.8258L30.1398 28.5485C30.5303 28.939 30.5303 29.5722 30.1398 29.9627Z" fill="white"/>
<path fill-rule="evenodd" clip-rule="evenodd" d="M30.1397 18.8258C30.5302 19.2163 30.5302 19.8494 30.1397 20.24L20.417 29.9627C20.0265 30.3532 19.3933 30.3532 19.0028 29.9627C18.6123 29.5722 18.6123 28.939 19.0028 28.5485L28.7255 18.8258C29.116 18.4352 29.7492 18.4352 30.1397 18.8258Z" fill="white"/>
</g>
<path fill-rule="evenodd" clip-rule="evenodd" d="M41.9705 57.0294C51.3431 66.402 51.3431 81.5979 41.9705 90.9705C32.598 100.343 17.402 100.343 8.0294 90.9705C-1.34313 81.598 -1.34313 66.4019 8.0294 57.0294C17.402 47.6568 32.598 47.6569 41.9705 57.0294ZM40.5563 89.5563C49.1478 80.9648 49.1478 67.0351 40.5563 58.4436C31.9648 49.8521 18.0351 49.8521 9.4436 58.4436C0.852098 67.0351 0.852098 80.9648 9.4436 89.5563C18.0351 98.1478 31.9648 98.1478 40.5563 89.5563Z" fill="#2B3355" fill-opacity="0.3"/>
<path fill-rule="evenodd" clip-rule="evenodd" d="M33.6864 74.1735C33.6863 74.7778 33.1965 75.2677 32.5922 75.2677L17.5474 75.2677C16.9431 75.2677 16.4532 74.7778 16.4532 74.1736C16.4533 73.5693 16.9431 73.0794 17.5474 73.0794L32.5922 73.0793C33.1965 73.0793 33.6864 73.5693 33.6864 74.1735Z" fill="white"/>
<path fill-rule="evenodd" clip-rule="evenodd" d="M33.6864 80.2768C33.6863 80.8811 33.1965 81.3709 32.5922 81.3709L17.5474 81.371C16.9431 81.371 16.4532 80.8811 16.4532 80.2769C16.4533 79.6725 16.9431 79.1827 17.5474 79.1827L32.5922 79.1826C33.1965 79.1826 33.6864 79.6725 33.6864 80.2768Z" fill="white"/>
<path fill-rule="evenodd" clip-rule="evenodd" d="M33.6868 68.0698C33.6868 68.6741 33.197 69.1639 32.5927 69.164L17.5479 69.164C16.9436 69.164 16.4537 68.6741 16.4537 68.0698C16.4537 67.4656 16.9436 66.9757 17.5479 66.9757L32.5927 66.9756C33.197 66.9756 33.6869 67.4655 33.6868 68.0698Z" fill="white"/>
<defs>
<clipPath id="clip0_122_40">
<rect width="49" height="49" fill="white"/>
</clipPath>
</defs>
</svg>
