<svg width="30" height="25" viewBox="0 0 30 25" fill="none" xmlns="http://www.w3.org/2000/svg">
<path d="M21.4286 7.14287C23.8941 7.14287 25.8929 5.14415 25.8929 2.67859H26.9717C28.5121 2.67859 29.7619 3.92836 29.7619 5.46877C29.7619 6.34651 29.3492 7.17194 28.6458 7.70091L15.997 17.1875C15.3344 17.6816 14.4275 17.6816 13.7649 17.1875L1.11607 7.70091C0.412714 7.17194 0 6.34651 0 5.46877C0 3.92836 1.24977 2.67859 2.79018 2.67859H16.9643C16.9643 5.14415 18.963 7.14287 21.4286 7.14287Z" fill="#263238"/>
<path d="M0 21.2798V9.189L12.6488 18.6756C13.9741 19.6696 15.7878 19.6696 17.1131 18.6756L29.7619 9.189V21.2798C29.7619 23.3317 28.0936 25 26.0417 25H3.72024C1.66829 25 0 23.3317 0 21.2798Z" fill="#263238"/>
<circle cx="21.4286" cy="2.67857" r="2.67857" fill="#263238"/>
</svg>
