<svg width="27" height="25" viewBox="0 0 27 25" fill="none" xmlns="http://www.w3.org/2000/svg">
<path d="M16.6667 12.5C16.6667 12.058 16.8423 11.6341 17.1548 11.3215C17.4674 11.009 17.8913 10.8334 18.3333 10.8334C18.7754 10.8334 19.1993 11.009 19.5118 11.3215C19.8244 11.6341 20 12.058 20 12.5C20 12.9421 19.8244 13.366 19.5118 13.6786C19.1993 13.9911 18.7754 14.1667 18.3333 14.1667C17.8913 14.1667 17.4674 13.9911 17.1548 13.6786C16.8423 13.366 16.6667 12.9421 16.6667 12.5ZM18.3333 8.33337C16.625 8.33337 15.1562 9.35942 14.5156 10.8334H1.66667C0.744792 10.8334 0 11.5782 0 12.5C0 13.4219 0.744792 14.1667 1.66667 14.1667H14.5156C15.1562 15.6407 16.625 16.6667 18.3333 16.6667C20.0417 16.6667 21.5104 15.6407 22.151 14.1667H25C25.9219 14.1667 26.6667 13.4219 26.6667 12.5C26.6667 11.5782 25.9219 10.8334 25 10.8334H22.151C21.5104 9.35942 20.0417 8.33337 18.3333 8.33337Z" fill="#263238"/>
<path d="M0 20.8333C0 21.7552 0.744792 22.5 1.66667 22.5H4.51562C5.15625 23.974 6.625 25 8.33333 25C10.0417 25 11.5104 23.974 12.151 22.5H25C25.9219 22.5 26.6667 21.7552 26.6667 20.8333C26.6667 19.9115 25.9219 19.1667 25 19.1667H12.151C11.5104 17.6927 10.0417 16.6667 8.33333 16.6667C6.625 16.6667 5.15625 17.6927 4.51562 19.1667H1.66667C0.744792 19.1667 0 19.9115 0 20.8333ZM6.66667 20.8333C6.66667 20.3913 6.84226 19.9674 7.15482 19.6548C7.46738 19.3423 7.89131 19.1667 8.33333 19.1667C8.77536 19.1667 9.19928 19.3423 9.51184 19.6548C9.8244 19.9674 10 20.3913 10 20.8333C10 21.2754 9.8244 21.6993 9.51184 22.0118C9.19928 22.3244 8.77536 22.5 8.33333 22.5C7.89131 22.5 7.46738 22.3244 7.15482 22.0118C6.84226 21.6993 6.66667 21.2754 6.66667 20.8333ZM10 5.83333C9.55797 5.83333 9.13405 5.65774 8.82149 5.34518C8.50893 5.03262 8.33333 4.60869 8.33333 4.16667C8.33333 3.72464 8.50893 3.30072 8.82149 2.98816C9.13405 2.67559 9.55797 2.5 10 2.5C10.442 2.5 10.8659 2.67559 11.1785 2.98816C11.4911 3.30072 11.6667 3.72464 11.6667 4.16667C11.6667 4.60869 11.4911 5.03262 11.1785 5.34518C10.8659 5.65774 10.442 5.83333 10 5.83333ZM13.8177 2.5C13.1771 1.02604 11.7083 0 10 0C8.29167 0 6.82292 1.02604 6.18229 2.5H1.66667C0.744792 2.5 0 3.24479 0 4.16667C0 5.08854 0.744792 5.83333 1.66667 5.83333H6.18229C6.82292 7.30729 8.29167 8.33333 10 8.33333C11.7083 8.33333 13.1771 7.30729 13.8177 5.83333H25C25.9219 5.83333 26.6667 5.08854 26.6667 4.16667C26.6667 3.24479 25.9219 2.5 25 2.5H13.8177Z" fill="#263238"/>
</svg>
