<svg width="40" height="40" viewBox="0 0 40 40" fill="none" xmlns="http://www.w3.org/2000/svg">
<g id="sign-out">
<path id="Vector" d="M37.9383 17.0533L29.6883 8.80334L27.3333 11.1667L34.5 18.3333H11.0283V21.6667H34.5L27.3333 28.8333L29.69 31.19L37.94 22.94C38.327 22.5531 38.634 22.0937 38.8435 21.5881C39.053 21.0825 39.1608 20.5406 39.1608 19.9933C39.1608 19.4461 39.053 18.9042 38.8435 18.3986C38.634 17.893 38.327 17.4336 37.94 17.0467L37.9383 17.0533Z" fill="white" style="fill:white;fill-opacity:1;"/>
<path id="Vector_2" d="M17.46 35C17.46 35.442 17.2844 35.866 16.9718 36.1785C16.6593 36.4911 16.2354 36.6667 15.7933 36.6667H5C4.55797 36.6667 4.13405 36.4911 3.82149 36.1785C3.50893 35.866 3.33333 35.442 3.33333 35V5C3.33333 4.55797 3.50893 4.13405 3.82149 3.82149C4.13405 3.50893 4.55797 3.33333 5 3.33333H15.7933C16.2354 3.33333 16.6593 3.50893 16.9718 3.82149C17.2844 4.13405 17.46 4.55797 17.46 5V13.8883H20.7933V5C20.7933 3.67392 20.2665 2.40215 19.3289 1.46447C18.3912 0.526784 17.1194 0 15.7933 0L5 0C3.67392 0 2.40215 0.526784 1.46447 1.46447C0.526784 2.40215 0 3.67392 0 5L0 35C0 36.3261 0.526784 37.5979 1.46447 38.5355C2.40215 39.4732 3.67392 40 5 40H15.7933C17.1194 40 18.3912 39.4732 19.3289 38.5355C20.2665 37.5979 20.7933 36.3261 20.7933 35V26.1117H17.46V35Z" fill="black" style="fill:black;fill-opacity:1;"/>
</g>
</svg>
